<svg width="22" height="16" viewBox="0 0 22 16" fill="none" xmlns="http://www.w3.org/2000/svg">
<path d="M0.78125 3.85906H21.0938C21.301 3.85906 21.4997 3.78254 21.6462 3.64634C21.7927 3.51014 21.875 3.32541 21.875 3.13279V1.68026C21.875 1.48764 21.7927 1.30291 21.6462 1.16671C21.4997 1.03051 21.301 0.953994 21.0938 0.953994H0.78125C0.57405 0.953994 0.375336 1.03051 0.228823 1.16671C0.0823101 1.30291 0 1.48764 0 1.68026L0 3.13279C0 3.32541 0.0823101 3.51014 0.228823 3.64634C0.375336 3.78254 0.57405 3.85906 0.78125 3.85906ZM21.0938 12.5743H0.78125C0.57405 12.5743 0.375336 12.6508 0.228823 12.787C0.0823101 12.9232 0 13.1079 0 13.3005L0 14.7531C0 14.9457 0.0823101 15.1304 0.228823 15.2666C0.375336 15.4028 0.57405 15.4793 0.78125 15.4793H21.0938C21.301 15.4793 21.4997 15.4028 21.6462 15.2666C21.7927 15.1304 21.875 14.9457 21.875 14.7531V13.3005C21.875 13.1079 21.7927 12.9232 21.6462 12.787C21.4997 12.6508 21.301 12.5743 21.0938 12.5743ZM21.2485 6.76413H8.43896C8.35668 6.76407 8.27519 6.77909 8.19915 6.80834C8.12312 6.83758 8.05403 6.88048 7.99584 6.93457C7.93766 6.98866 7.89152 7.05288 7.86006 7.12357C7.8286 7.19425 7.81244 7.27001 7.8125 7.3465V9.08682C7.81244 9.16332 7.8286 9.23907 7.86006 9.30976C7.89152 9.38044 7.93766 9.44466 7.99584 9.49875C8.05403 9.55284 8.12312 9.59574 8.19915 9.62498C8.27519 9.65423 8.35668 9.66925 8.43896 9.66919H21.2485C21.3308 9.66925 21.4123 9.65423 21.4883 9.62498C21.5644 9.59574 21.6335 9.55284 21.6917 9.49875C21.7498 9.44466 21.796 9.38044 21.8274 9.30976C21.8589 9.23907 21.8751 9.16332 21.875 9.08682V7.3465C21.8751 7.27001 21.8589 7.19425 21.8274 7.12357C21.796 7.05288 21.7498 6.98866 21.6917 6.93457C21.6335 6.88048 21.5644 6.83758 21.4883 6.80834C21.4123 6.77909 21.3308 6.76407 21.2485 6.76413Z" fill="black"/>
</svg>
