<svg width="73" height="44" viewBox="0 0 73 44" fill="none" xmlns="http://www.w3.org/2000/svg">
<path d="M5.008 43.648C3.472 43.2 2.4 42.752 1.792 42.304C1.216 41.856 0.928 41.296 0.928 40.624C0.928 40.112 1.072 39.392 1.36 38.464C1.648 37.536 2.064 36.448 2.608 35.2C3.184 33.92 3.856 32.512 4.624 30.976C5.424 29.44 6.32 27.792 7.312 26.032C6.48 26 5.728 25.984 5.056 25.984C4.416 25.952 3.888 25.936 3.472 25.936C3.664 25.456 4.208 25.04 5.104 24.688C6 24.336 7.184 24.032 8.656 23.776C9.904 21.696 11.232 19.712 12.64 17.824C14.08 15.936 15.52 14.208 16.96 12.64C18.4 11.04 19.84 9.648 21.28 8.464C22.72 7.248 24.096 6.288 25.408 5.584C25.44 5.36 25.456 5.168 25.456 5.008C25.488 4.848 25.504 4.736 25.504 4.672C25.952 4.672 26.544 4.784 27.28 5.008C28.048 5.232 28.784 5.504 29.488 5.824C30.224 6.144 30.864 6.48 31.408 6.832C31.984 7.152 32.304 7.424 32.368 7.648C31.312 9.504 30.272 12.288 29.248 16C28.224 19.68 27.376 24.096 26.704 29.248C26.544 30.528 26.4 31.984 26.272 33.616C26.176 35.248 26.128 37.072 26.128 39.088C26.128 39.792 26.128 40.512 26.128 41.248C26.128 41.984 26.16 42.752 26.224 43.552C26.16 43.584 26.096 43.6 26.032 43.6C25.968 43.6 25.84 43.6 25.648 43.6C25.2 43.6 24.672 43.52 24.064 43.36C23.488 43.232 22.912 43.056 22.336 42.832C21.792 42.64 21.312 42.416 20.896 42.16C20.512 41.904 20.272 41.68 20.176 41.488C20.144 41.072 20.128 40.656 20.128 40.24C20.128 39.856 20.128 39.44 20.128 38.992C20.128 37.008 20.192 34.992 20.32 32.944C20.48 30.896 20.736 28.784 21.088 26.608C20.64 26.576 20.048 26.544 19.312 26.512C18.576 26.448 17.744 26.4 16.816 26.368C15.92 26.336 14.944 26.304 13.888 26.272C12.864 26.208 11.856 26.16 10.864 26.128C10.096 27.568 9.376 29.008 8.704 30.448C8.032 31.856 7.456 33.28 6.976 34.72C6.432 36.256 5.984 37.792 5.632 39.328C5.312 40.864 5.104 42.304 5.008 43.648ZM23.536 14.8C23.664 14.352 23.808 13.744 23.968 12.976C24.16 12.176 24.336 11.344 24.496 10.48C23.696 10.768 22.8 11.296 21.808 12.064C20.848 12.832 19.84 13.792 18.784 14.944C17.76 16.064 16.704 17.344 15.616 18.784C14.56 20.192 13.536 21.696 12.544 23.296C15.232 23.072 18.288 22.928 21.712 22.864C21.968 21.52 22.24 20.192 22.528 18.88C22.848 17.536 23.184 16.176 23.536 14.8ZM42.4169 17.584C43.0569 17.584 43.7929 17.776 44.6249 18.16C45.4569 18.544 46.1929 19.04 46.8329 19.648C46.6729 18.368 46.4649 17.168 46.2089 16.048C45.9849 14.896 45.6329 13.712 45.1529 12.496C44.7049 11.28 44.0969 9.952 43.3289 8.512C42.5609 7.072 41.6009 5.424 40.4489 3.568C40.5449 3.28 40.7529 2.944 41.0729 2.56C41.4249 2.176 41.8089 1.824 42.2249 1.504C42.6729 1.152 43.1209 0.847999 43.5689 0.591998C44.0489 0.335998 44.4969 0.175998 44.9129 0.111999C45.8089 1.104 46.6569 2.352 47.4569 3.856C48.2569 5.328 48.9609 6.928 49.5689 8.656C50.1769 10.352 50.6409 12.112 50.9609 13.936C51.3129 15.76 51.4889 17.504 51.4889 19.168C51.4889 20.832 51.2969 22.544 50.9129 24.304C50.5609 26.064 50.0489 27.792 49.3769 29.488C48.7369 31.152 47.9849 32.736 47.1209 34.24C46.2569 35.744 45.3129 37.088 44.2889 38.272C43.2969 39.456 42.2569 40.416 41.1689 41.152C40.0809 41.92 38.9929 42.4 37.9049 42.592C35.6969 42.336 34.0009 41.616 32.8169 40.432C31.6649 39.28 31.0889 37.68 31.0889 35.632C31.0889 34.544 31.2489 33.36 31.5689 32.08C31.9209 30.8 32.3689 29.536 32.9129 28.288C33.4889 27.008 34.1449 25.776 34.8809 24.592C35.6489 23.376 36.4489 22.288 37.2809 21.328C38.1449 20.368 39.0089 19.552 39.8729 18.88C40.7369 18.208 41.5849 17.776 42.4169 17.584ZM37.5209 40.672C38.6409 40.288 39.7609 39.44 40.8809 38.128C42.0009 36.816 43.0089 35.28 43.9049 33.52C44.8009 31.728 45.5209 29.824 46.0649 27.808C46.6409 25.76 46.9289 23.792 46.9289 21.904C46.9289 21.36 46.9289 21.024 46.9289 20.896C46.9289 20.768 46.9129 20.64 46.8809 20.512C46.1129 20.832 45.2969 21.376 44.4329 22.144C43.5689 22.912 42.7049 23.808 41.8409 24.832C40.9769 25.824 40.1609 26.912 39.3929 28.096C38.6249 29.28 37.9369 30.464 37.3289 31.648C36.7209 32.832 36.2409 33.968 35.8889 35.056C35.5369 36.144 35.3609 37.104 35.3609 37.936C35.3609 39.536 36.0809 40.448 37.5209 40.672ZM69.2785 20.608C69.5985 20.608 69.9665 20.672 70.3825 20.8C70.8305 20.896 71.2305 21.04 71.5825 21.232C71.9345 21.392 72.2225 21.568 72.4465 21.76C72.7025 21.952 72.8305 22.128 72.8305 22.288C72.1905 23.632 71.5985 24.992 71.0545 26.368C70.5105 27.712 70.0465 29.008 69.6625 30.256C69.2785 31.504 68.9745 32.672 68.7505 33.76C68.5585 34.848 68.4625 35.792 68.4625 36.592C68.4625 37.488 68.5585 38.24 68.7505 38.848C68.9425 39.424 69.2625 39.84 69.7105 40.096C69.3265 40.352 68.8305 40.56 68.2225 40.72C67.6145 40.88 67.0705 40.96 66.5905 40.96C64.8625 40.96 63.9985 39.776 63.9985 37.408C63.9985 35.584 64.6065 33.088 65.8225 29.92C65.1825 31.392 64.4465 32.784 63.6145 34.096C62.7825 35.376 61.9345 36.512 61.0705 37.504C60.2065 38.496 59.3265 39.312 58.4305 39.952C57.5665 40.56 56.7665 40.928 56.0305 41.056C54.8465 40.992 53.8865 40.432 53.1505 39.376C52.4145 38.288 52.0465 36.912 52.0465 35.248C52.0465 33.456 52.4305 31.568 53.1985 29.584C53.9665 27.6 54.9425 25.76 56.1265 24.064C57.3425 22.368 58.6545 20.96 60.0625 19.84C61.4705 18.688 62.8305 18.08 64.1425 18.016C64.4625 18.112 64.8145 18.304 65.1985 18.592C65.6145 18.88 65.9985 19.216 66.3505 19.6C66.7345 19.984 67.0545 20.384 67.3105 20.8C67.5665 21.184 67.7105 21.52 67.7425 21.808C66.4625 22 65.1345 22.624 63.7585 23.68C62.4145 24.736 61.1825 26.016 60.0625 27.52C58.9745 28.992 58.0785 30.576 57.3745 32.272C56.6705 33.968 56.3185 35.552 56.3185 37.024C56.3185 37.632 56.5425 38.016 56.9905 38.176C57.9185 37.984 58.9905 37.2 60.2065 35.824C61.4225 34.416 62.8945 32.256 64.6225 29.344C64.9425 28.768 65.2945 28.128 65.6785 27.424C66.0945 26.72 66.5105 25.984 66.9265 25.216C67.3425 24.448 67.7425 23.68 68.1265 22.912C68.5425 22.112 68.9265 21.344 69.2785 20.608Z" fill="black"/>
</svg>
