<svg width="48" height="48" viewBox="0 0 48 48" fill="none" xmlns="http://www.w3.org/2000/svg">
<circle cx="24" cy="24" r="24" fill="#3E4455"/>
<path d="M24.1094 12C17.4322 12 12 17.4322 12 24.1094C12 30.7865 17.4322 36.2188 24.1094 36.2188C30.7865 36.2188 36.2188 30.7865 36.2188 24.1094C36.2188 17.4322 30.7865 12 24.1094 12ZM32.1157 17.5843C33.5563 19.3443 34.4287 21.5861 34.4514 24.0274C34.1104 23.9553 30.6908 23.2617 27.2492 23.6945C26.9683 23.0089 26.7032 22.4058 26.3401 21.6625C30.1644 20.1012 31.8977 17.8792 32.1157 17.5843ZM30.9659 16.3882C30.7798 16.6532 29.2229 18.7459 25.5449 20.1245C23.85 17.0104 21.9714 14.4522 21.6855 14.0694C24.9656 13.2787 28.4222 14.1314 30.9659 16.3882ZM19.712 14.7646C19.9847 15.1386 21.833 17.7 23.5468 20.7465C18.7085 22.0313 14.4472 22.0128 13.9846 22.0067C14.6553 18.7971 16.8183 16.1295 19.712 14.7646ZM13.7661 24.1251C13.7661 24.0194 13.7682 23.9141 13.7714 23.8091C14.2239 23.8184 19.2362 23.883 24.4016 22.3371C24.6977 22.9166 24.9805 23.5048 25.2401 24.0924C21.5 25.1459 18.1018 28.1709 16.4251 31.041C14.7731 29.2073 13.7661 26.7817 13.7661 24.1251ZM17.7606 32.285C18.841 30.0763 21.7732 27.2253 25.9432 25.8027C27.3953 29.5763 27.9958 32.7389 28.1497 33.6464C24.8239 35.063 20.8247 34.6744 17.7606 32.285ZM29.8885 32.6995C29.7825 32.0703 29.232 29.0424 27.8791 25.3248C31.1204 24.806 33.968 25.6553 34.3219 25.7669C33.8608 28.6449 32.2089 31.1304 29.8885 32.6995Z" fill="#CA847A"/>
</svg>
