<svg width="50" height="50" viewBox="0 0 50 50" fill="none" xmlns="http://www.w3.org/2000/svg">
<path d="M25 0C38.8105 0 50 11.1895 50 25C50 38.8105 38.8105 50 25 50C11.1895 50 0 38.8105 0 25C0 11.1895 11.1895 0 25 0ZM13.3065 29.4355H25V36.5827C25 37.6613 26.3105 38.2056 27.0665 37.4395L38.5887 25.8569C39.0625 25.3831 39.0625 24.627 38.5887 24.1532L27.0665 12.5605C26.3004 11.7944 25 12.3387 25 13.4173V20.5645H13.3065C12.6411 20.5645 12.0968 21.1089 12.0968 21.7742V28.2258C12.0968 28.8911 12.6411 29.4355 13.3065 29.4355Z" fill="#CA847A"/>
</svg>
