<svg width="48" height="48" viewBox="0 0 48 48" fill="none" xmlns="http://www.w3.org/2000/svg">
<circle cx="24" cy="24" r="24" fill="#3E4455"/>
<path d="M17.8965 32.8745H13.3613V18.27H17.8965V32.8745ZM15.6265 16.2778C14.1763 16.2778 13 15.0767 13 13.6265C13 12.9299 13.2767 12.2618 13.7693 11.7693C14.2618 11.2767 14.9299 11 15.6265 11C16.323 11 16.9911 11.2767 17.4837 11.7693C17.9762 12.2618 18.2529 12.9299 18.2529 13.6265C18.2529 15.0767 17.0762 16.2778 15.6265 16.2778ZM34.8701 32.8745H30.3447V25.7651C30.3447 24.0708 30.3105 21.8979 27.9868 21.8979C25.6289 21.8979 25.2676 23.7388 25.2676 25.6431V32.8745H20.7373V18.27H25.0869V20.2622H25.1504C25.7559 19.1147 27.2349 17.9038 29.4414 17.9038C34.0312 17.9038 34.875 20.9263 34.875 24.8521V32.8745H34.8701Z" fill="#CA847A"/>
</svg>
